<svg xmlns="http://www.w3.org/2000/svg" xmlns:xlink="http://www.w3.org/1999/xlink" width="px" height="px" viewBox="0 0 50 50"><g id="surface1"><path style="fill:none;stroke-width:2;stroke-linecap:round;stroke-linejoin:round;stroke:rgb(93.72549%,70.196078%,25.882353%);stroke-opacity:1;stroke-miterlimit:4;" d="M 29.960938 41.6875 C 29.398438 42.671875 28.757812 43.601562 28.429688 44.703125 C 27.25 48.59375 27.351562 52.453125 28.773438 56.25 C 29.882812 59.226562 31.148438 62.132812 32.757812 64.882812 C 33.90625 66.851562 33.476562 68.40625 31.53125 69.601562 C 30.90625 69.976562 30.273438 70.359375 29.5625 70.5 C 21.820312 73.210938 9.210938 70.523438 9.210938 70.523438 C 8.25 70.273438 7.398438 69.757812 6.640625 69.109375 C 5.34375 67.992188 5.023438 66.773438 5.726562 65.210938 C 6.570312 63.367188 7.4375 61.539062 8.46875 59.8125 C 8.710938 59.40625 8.671875 59.25 8.242188 59.117188 C 6.15625 58.460938 5.132812 56.898438 5.09375 54.828125 C 5 49.84375 4.929688 44.84375 5.117188 39.859375 C 5.242188 36.632812 7.023438 34.15625 9.703125 32.390625 C 11.742188 31.039062 14.03125 30.40625 16.429688 30.140625 C 19.28125 29.820312 22.09375 29.976562 24.84375 30.796875 C 27.15625 31.492188 29.21875 32.632812 30.992188 34.351562 C 34.007812 37.28125 37.078125 40.148438 40.132812 43.039062 C 40.25 43.148438 40.367188 43.257812 40.476562 43.382812 M 8.242188 59.117188 C 8.90625 59.007812 10.101562 56.359375 10.210938 55.851562 C 10.789062 53.359375 10.976562 50.828125 10.890625 48.28125 C 10.8125 46.140625 10.34375 44.09375 9.539062 42.109375 C 9.390625 41.726562 9.289062 41.351562 9.539062 40.960938 M 26.710938 80.429688 L 26.703125 80.429688 C 26.703125 77.609375 26.703125 74.78125 26.703125 71.960938 C 26.703125 71.4375 26.59375 71.25 26.023438 71.367188 C 24.5 71.671875 22.96875 71.8125 21.421875 71.828125 C 20.398438 71.84375 20.390625 71.828125 20.390625 72.8125 C 20.390625 78.078125 20.390625 83.351562 20.390625 88.617188 C 20.390625 90.539062 21.757812 91.859375 23.617188 91.882812 C 25.257812 91.898438 26.796875 90.179688 26.742188 88.546875 C 26.640625 85.851562 26.710938 83.140625 26.710938 80.429688 Z M 11.953125 80.453125 C 11.953125 83.203125 11.992188 85.960938 11.929688 88.710938 C 11.890625 90.453125 13.4375 91.882812 15.03125 91.882812 C 16.78125 91.882812 18.257812 90.492188 18.257812 88.75 C 18.28125 83.359375 18.257812 77.976562 18.28125 72.59375 C 18.28125 72.03125 18.09375 71.851562 17.5625 71.851562 C 15.898438 71.851562 14.242188 71.6875 12.609375 71.367188 C 12.0625 71.257812 11.921875 71.359375 11.929688 71.921875 C 11.953125 74.773438 11.9375 77.609375 11.9375 80.460938 Z M 11.953125 80.453125 " transform="matrix(0.5,0,0,0.5,0,0)"></path><path style="fill:none;stroke-width:2;stroke-linecap:round;stroke-linejoin:round;stroke:rgb(93.72549%,70.196078%,25.882353%);stroke-opacity:1;stroke-miterlimit:4;" d="M 74.25 44.109375 C 74.25 51.6875 74.25 59.273438 74.25 66.851562 C 74.25 73.703125 74.25 80.546875 74.25 87.398438 C 74.25 88.03125 74.21875 88.671875 74.359375 89.296875 C 74.703125 90.828125 76.007812 91.929688 77.460938 91.882812 C 78.75 91.84375 80.039062 90.578125 80.289062 89.148438 C 80.398438 88.539062 80.390625 87.929688 80.390625 87.320312 C 80.390625 80 80.390625 72.679688 80.398438 65.351562 C 80.398438 64.46875 80.617188 64.1875 81.328125 64.15625 C 82.109375 64.132812 82.40625 64.4375 82.40625 65.359375 C 82.40625 72.046875 82.40625 78.726562 82.429688 85.421875 C 82.429688 86.617188 82.367188 87.820312 82.53125 89.023438 C 82.75 90.601562 84.0625 91.890625 85.4375 91.867188 C 87.101562 91.851562 88.546875 90.46875 88.5625 88.78125 C 88.601562 85.179688 88.59375 81.578125 88.59375 77.96875 C 88.59375 74.0625 88.59375 70.148438 88.59375 66.25 C 88.59375 58.8125 88.59375 51.367188 88.59375 43.929688 C 88.59375 43.570312 88.59375 43.21875 88.726562 42.890625 C 88.898438 42.492188 89.203125 42.25 89.65625 42.28125 C 90.117188 42.3125 90.460938 42.5 90.609375 42.96875 C 90.710938 43.289062 90.6875 43.617188 90.6875 43.953125 C 90.6875 47.8125 90.6875 51.671875 90.6875 55.53125 C 90.6875 56.398438 90.929688 57.1875 91.59375 57.742188 C 92.859375 58.789062 94.679688 57.96875 94.882812 56.273438 C 94.976562 55.429688 94.992188 54.578125 94.992188 53.726562 C 95 47.992188 95.007812 42.242188 95.007812 36.5 C 95.007812 36.007812 94.976562 35.507812 94.890625 35.03125 C 94.5 33.046875 93.070312 31.867188 91.070312 31.859375 C 85.59375 31.84375 80.109375 31.796875 74.632812 31.828125 C 72.773438 31.84375 71.296875 32.453125 69.992188 33.75 C 66.859375 36.84375 62.976562 40.96875 59.320312 44.28125 " transform="matrix(0.5,0,0,0.5,0,0)"></path><path style="fill:none;stroke-width:2;stroke-linecap:round;stroke-linejoin:round;stroke:rgb(93.72549%,70.196078%,25.882353%);stroke-opacity:1;stroke-miterlimit:4;" d="M 42.578125 57.046875 C 42.578125 56.578125 42.578125 56.320312 42.578125 56.0625 C 42.59375 55.382812 42.953125 54.976562 43.59375 55.007812 C 44.1875 55.03125 44.5625 55.390625 44.5625 56 C 44.5625 58.382812 44.75 60.773438 44.5 63.117188 C 44.101562 66.867188 43.078125 70.5 41.492188 73.9375 C 40.859375 75.3125 40.203125 76.648438 39.367188 77.921875 C 38.9375 78.578125 39.007812 78.78125 39.75 79.046875 C 40.296875 79.25 40.859375 79.429688 41.421875 79.570312 C 43.992188 80.179688 46.609375 80.28125 49.226562 80.289062 C 52.09375 80.289062 54.960938 80.171875 57.71875 79.382812 C 59.851562 78.773438 59.492188 78.84375 58.4375 77.40625 C 54.992188 72.679688 53.242188 67.40625 53.25 61.539062 C 53.25 59.398438 53.226562 57.257812 53.257812 55.117188 C 53.257812 54.578125 53.101562 54.4375 52.578125 54.453125 C 51.0625 54.492188 49.539062 54.4375 48.023438 54.5 C 45.578125 54.601562 43.507812 53.78125 41.648438 52.210938 C 39.5 50.398438 37.273438 48.679688 35.046875 46.953125 C 34.28125 46.351562 33.570312 45.617188 32.601562 45.328125 C 32.140625 45.1875 31.609375 45.0625 31.242188 45.53125 C 30.828125 46.046875 30.9375 46.59375 31.257812 47.101562 C 31.59375 47.632812 32.0625 48.023438 32.53125 48.398438 C 35.40625 50.726562 38.25 53.109375 40.953125 55.648438 C 41.421875 56.09375 41.929688 56.5 42.570312 57.046875 Z M 66.023438 45.5 C 65.46875 45.5 64.9375 45.921875 64.398438 46.34375 C 61.507812 48.609375 58.617188 50.890625 55.71875 53.148438 C 55.390625 53.40625 55.25 53.679688 55.257812 54.101562 C 55.289062 55.039062 55.28125 55.976562 55.296875 56.921875 C 55.296875 57.117188 55.1875 57.398438 55.40625 57.5 C 55.671875 57.632812 55.820312 57.328125 55.96875 57.179688 C 59.28125 54.0625 62.757812 51.132812 66.28125 48.25 C 66.648438 47.953125 66.96875 47.609375 67.1875 47.1875 C 67.671875 46.3125 67.1875 45.476562 66.023438 45.476562 Z M 47.929688 86.429688 C 47.929688 85.296875 47.921875 84.171875 47.929688 83.046875 C 47.929688 82.617188 47.820312 82.40625 47.351562 82.382812 C 46.507812 82.34375 45.671875 82.25 44.84375 82.148438 C 44.359375 82.09375 44.226562 82.3125 44.226562 82.75 C 44.226562 84.140625 44.210938 85.523438 44.210938 86.90625 C 44.210938 87.867188 44.171875 88.84375 44.25 89.796875 C 44.34375 90.953125 45.179688 91.75 46.109375 91.710938 C 47.203125 91.65625 47.898438 90.867188 47.921875 89.609375 C 47.9375 88.546875 47.921875 87.5 47.921875 86.4375 Z M 53.703125 86.28125 C 53.703125 86.28125 53.703125 86.28125 53.6875 86.28125 C 53.6875 85.132812 53.671875 83.976562 53.6875 82.828125 C 53.6875 82.367188 53.546875 82.203125 53.078125 82.242188 C 52.203125 82.320312 51.3125 82.367188 50.421875 82.40625 C 50.0625 82.429688 49.9375 82.5625 49.96875 82.9375 C 50.023438 83.617188 50.023438 84.296875 50.03125 84.976562 C 50.03125 86.617188 50.03125 88.273438 50.046875 89.90625 C 50.0625 90.523438 50.28125 91.046875 50.882812 91.359375 C 52.296875 92.09375 53.632812 91.351562 53.6875 89.742188 C 53.726562 88.59375 53.6875 87.4375 53.6875 86.289062 Z M 53.703125 86.28125 " transform="matrix(0.5,0,0,0.5,0,0)"></path><path style="fill:none;stroke-width:2;stroke-linecap:round;stroke-linejoin:round;stroke:rgb(93.72549%,70.196078%,25.882353%);stroke-opacity:1;stroke-miterlimit:4;" d="M 55.390625 47.0625 C 55.53125 46.976562 55.601562 46.960938 55.640625 46.90625 C 57.0625 45.070312 57.382812 42.960938 56.6875 40.828125 C 55.070312 35.78125 48.820312 34.507812 45.25 38.40625 M 53.578125 45.65625 C 51.71875 45.609375 48.226562 44.429688 46.679688 43.460938 C 44.617188 41.992188 43.742188 40.820312 43.5 42.359375 C 43.476562 42.476562 40.8125 51.523438 48.851562 51.523438 C 51.53125 51.53125 53.171875 47.859375 53.578125 45.65625 M 46.679688 43.460938 C 48.070312 44.398438 49.59375 44.867188 51.242188 45.101562 M 57.671875 37.867188 C 58.023438 36.921875 57.859375 36.148438 57.273438 35.507812 C 56.742188 34.9375 56.078125 34.601562 55.257812 34.820312 C 55.070312 34.867188 54.78125 34.867188 54.757812 35.109375 " transform="matrix(0.5,0,0,0.5,0,0)"></path><path style="fill:none;stroke-width:2;stroke-linecap:round;stroke-linejoin:round;stroke:rgb(93.72549%,70.196078%,25.882353%);stroke-opacity:1;stroke-miterlimit:4;" d="M 10.007812 29.21875 C 10.007812 29.953125 9.609375 30.40625 9.007812 30.429688 C 8.390625 30.453125 8.007812 30.046875 8 29.257812 C 7.976562 27.421875 8 25.59375 8 23.75 C 8 22.289062 8 20.828125 8 19.367188 C 8.023438 13.398438 12.59375 8.53125 18.53125 8.132812 C 24.328125 7.742188 29.5625 12.023438 30.359375 17.851562 C 30.5625 19.273438 30.507812 20.71875 30.507812 22.148438 C 30.507812 24.273438 30.507812 26.390625 30.507812 28.507812 C 30.507812 28.859375 30.476562 29.210938 30.429688 29.5625 C 30.351562 30.140625 29.976562 30.4375 29.421875 30.429688 " transform="matrix(0.5,0,0,0.5,0,0)"></path><path style="fill:none;stroke-width:2;stroke-linecap:round;stroke-linejoin:round;stroke:rgb(93.72549%,70.196078%,25.882353%);stroke-opacity:1;stroke-miterlimit:4;" d="M 81.429688 9.171875 C 86.59375 9.226562 90.726562 13.453125 90.53125 18.632812 C 90.382812 22.382812 88.648438 25.382812 85.453125 27.320312 C 82.390625 29.179688 79.328125 28.796875 76.453125 26.710938 C 73.453125 24.53125 71.226562 19.460938 72.789062 15.257812 C 74.109375 11.710938 77.648438 9.132812 81.429688 9.171875 Z M 81.429688 9.171875 " transform="matrix(0.5,0,0,0.5,0,0)"></path><path style="fill:none;stroke-width:2;stroke-linecap:round;stroke-linejoin:round;stroke:rgb(93.72549%,70.196078%,25.882353%);stroke-opacity:1;stroke-miterlimit:4;" d="M 11.898438 19.976562 C 11.796875 18.671875 12.25 17.40625 12.96875 16.257812 C 13.3125 15.71875 13.296875 15.398438 12.890625 14.921875 C 12.21875 14.140625 12.507812 13.3125 13.453125 13.117188 C 13.867188 13.03125 14.101562 13.257812 14.351562 13.523438 C 15.507812 14.75 16.601562 16.046875 18.0625 16.9375 C 20.648438 18.507812 23.421875 19.226562 26.453125 18.890625 C 26.773438 18.851562 27.109375 18.796875 27.429688 18.851562 C 27.96875 18.9375 28.28125 19.289062 28.289062 19.882812 C 28.296875 20.453125 28.070312 20.789062 27.5 20.820312 C 26.71875 20.859375 26.46875 21.328125 26.320312 22.03125 C 25.601562 25.34375 23.046875 27.828125 19.898438 28.1875 C 17.289062 28.492188 15.28125 27.320312 13.71875 25.289062 C 12.539062 23.75 11.882812 22.03125 11.921875 19.96875 Z M 11.898438 19.976562 " transform="matrix(0.5,0,0,0.5,0,0)"></path></g></svg>