<svg xmlns="http://www.w3.org/2000/svg" id="Layer_1" data-name="Layer 1" viewBox="0 0 50 50"><defs><style>      .cls-1 {        fill: none;        stroke: #efb342;        stroke-linecap: round;        stroke-linejoin: round;        stroke-width: .75px;      }    </style></defs><path class="cls-1" d="m19.6,30.21c-.65-.76-1.7-.88-2.49-.24-1.08.87-2.15,1.76-3.22,2.65-.44.36-.69.82-.67,1.42-.02.38.11.73.35,1.04.64.82,1.75.94,2.61.24,1.07-.87,2.11-1.78,3.18-2.64.85-.69.75-1.89.25-2.47Z"></path><path class="cls-1" d="m15.45,30.86c.75-.65.85-1.66.26-2.42-.58-.75-1.63-.94-2.41-.36-.82.61-1.6,1.28-2.36,1.96-.51.46-.63,1.25-.37,1.87.29.69.89,1.1,1.66,1.1.4.01.78-.13,1.12-.41.7-.58,1.41-1.15,2.1-1.75Z"></path><path class="cls-1" d="m22.21,33.53c-.38-.68-1.1-1.04-1.82-.91-.27.05-.52.12-.73.29-.77.63-1.55,1.24-2.3,1.89-.59.51-.75,1.25-.48,1.92.27.69.93,1.14,1.67,1.14.39.01.74-.12,1.05-.35.19-.14.37-.29.55-.44.61-.51,1.24-1,1.82-1.55.52-.49.6-1.36.25-1.99Z"></path><path class="cls-1" d="m5.06,24.83c-.48,0-.84.35-.84.83,0,.48.38.87.85.86.48-.01.84-.38.84-.87,0-.47-.37-.82-.85-.81Z"></path><path class="cls-1" d="m12.05,13.76c-1.08-.45-2.17-.89-3.26-1.34-.19-.08-.39-.13-.6-.11-.67,0-1.08.34-1.39,1.09-.87,2.14-1.75,4.27-2.63,6.4-.77,1.87-1.55,3.73-2.31,5.61-.35.86-.05,1.59.78,1.95,1.13.48,2.26.94,3.4,1.4.23.09.47.14.72.11.64-.09,1-.48,1.23-1.05,1.64-3.97,3.28-7.94,4.92-11.91.41-1,.12-1.72-.87-2.13Z"></path><path class="cls-1" d="m41.24,13.88c-.49-.02-.88.35-.89.82,0,.48.35.86.84.86.47,0,.84-.36.86-.85.01-.43-.37-.81-.82-.83Z"></path><path class="cls-1" d="m25.55,36.06c-.25-.66-.91-1.1-1.71-1.11-.27,0-.59.06-.87.26-.52.37-1.01.77-1.45,1.22-.67.69-.67,1.71-.02,2.41.62.68,1.68.76,2.41.18.4-.32.79-.65,1.17-.99.56-.5.74-1.27.47-1.96Z"></path><path class="cls-1" d="m37.39,15.53c-.55.13-1.1.25-1.65.35-.78.14-1.54.39-2.35.37-1.21-.02-2.41,0-3.62,0-1.28,0-2.56,0-3.84,0-.81,0-1.52.23-2.17.72-1.03.77-2.08,1.53-3.12,2.29-.92.67-1.85,1.32-2.75,2-.75.57-.8,1.49-.14,2.16.24.25.53.45.85.59,1.35.59,2.63.46,3.83-.38,1.1-.77,2.19-1.55,3.28-2.32.38-.26.76-.52,1.14-.77.09-.06.2-.12.27-.01.08.11,0,.21-.1.28-.13.1-.27.19-.4.29-.07.06-.15.13-.07.23.4.48.69,1.02,1.36,1.27,3.12,1.13,6.22,2.31,9.33,3.47.77.29,1.26.81,1.44,1.61.05.2.13.26.34.22.74-.15,1.49-.28,2.23-.39"></path><path class="cls-1" d="m48.14,25.26c-.76-2.33-1.52-4.65-2.27-6.98-.57-1.76-1.15-3.53-1.72-5.29-.3-.93-1.03-1.34-1.93-1.05-1.15.36-2.29.74-3.43,1.12-.85.29-1.2,1.02-.93,1.88,1.35,4.17,2.7,8.34,4.06,12.51.27.84.99,1.24,1.83.98,1.21-.37,2.41-.78,3.6-1.19.58-.2.92-.72.92-1.32,0-.23-.06-.44-.13-.66Z"></path><path class="cls-1" d="m8.54,27.97c.76.44,2,1.13,2.75,1.58"></path><path class="cls-1" d="m23.35,17.28c-1.92,0-4.94-.04-6.86.03-1.12.04-2.15-.11-3.05-.81-.02-.02-.05-.03-.08-.05"></path><path class="cls-1" d="m25.21,37.88c.62.32,1.77.86,2.42,1.13,1.08.44,2.27-.33,2.33-1.5.04-.87-.36-1.46-1.25-1.82-.32-.13-.64-.26-.96-.4-.1-.04-.18-.13-.12-.25.05-.11.15-.09.25-.06.24.09.47.17.71.26.78.32,1.54.67,2.33.95.91.33,1.85-.12,2.2-.99.35-.87-.03-1.82-.92-2.24-.17-.08-.34-.16-.51-.24-1.12-.51-2.23-1.01-3.35-1.52-.12-.05-.3-.12-.23-.28.07-.16.25-.12.39-.05.03.01.06.02.09.04.8.37,1.6.74,2.4,1.1.78.35,1.55.74,2.36,1.03,1.19.43,2.43-.37,2.54-1.59.09-1.01-.38-1.72-1.38-2.1-1.66-.62-3.32-1.23-4.98-1.85-.17-.06-.45-.1-.38-.33.08-.23.33-.08.49-.02,2.18.8,4.36,1.61,6.54,2.42.37.14.74.17,1.11.07.84-.21,1.39-.88,1.44-1.74"></path></svg>