<svg xmlns="http://www.w3.org/2000/svg" id="Layer_1" data-name="Layer 1" viewBox="0 0 50 50"><defs><style>      .cls-1 {        fill: none;        stroke: #00a1cd;        stroke-linecap: round;        stroke-linejoin: round;        stroke-width: .75px;      }    </style></defs><polyline class="cls-1" points="12.14 38.79 21.25 38.79 21.25 26.31 29.5 26.31 29.5 38.79 38.4 38.79"></polyline><line class="cls-1" x1="22.91" y1="30.1" x2="21.54" y2="30.06"></line><line class="cls-1" x1="22.91" y1="36.83" x2="21.54" y2="36.79"></line><line class="cls-1" x1="27.25" y1="31.73" x2="27.25" y2="33.52"></line><path class="cls-1" d="m18.29,26.31h-2.7c-1.1,0-1.99.89-1.99,1.99v.18c0,1.1.89,1.99,1.99,1.99h2.7"></path><path class="cls-1" d="m25.27,17.3l10.01,6.43c.93.61,2.17.34,2.78-.58h0c.61-.93.34-2.17-.58-2.78l-12.2-7.82-12.2,7.82c-.93.61-1.19,1.85-.58,2.78h0c.61.93,1.85,1.19,2.78.58l10.01-6.43Z"></path><path class="cls-1" d="m32.25,30.47h2.7c1.1,0,1.99-.89,1.99-1.99v-.18c0-1.1-.89-1.99-1.99-1.99h-2.7"></path><path class="cls-1" d="m18.29,30.47h-2.7c-1.1,0-1.99.89-1.99,1.99v.18c0,1.1.89,1.99,1.99,1.99h2.7"></path><path class="cls-1" d="m32.25,34.63h2.7c1.1,0,1.99-.89,1.99-1.99v-.18c0-1.1-.89-1.99-1.99-1.99h-2.7"></path><path class="cls-1" d="m32.25,38.79h2.7c1.1,0,1.99-.89,1.99-1.99v-.18c0-1.1-.89-1.99-1.99-1.99h-2.7"></path><path class="cls-1" d="m18.29,34.63h-2.7c-1.1,0-1.99.89-1.99,1.99v.18c0,1.1.89,1.99,1.99,1.99h2.7"></path><line class="cls-1" x1="21.15" y1="22.66" x2="29.39" y2="22.66"></line><line class="cls-1" x1="31.1" y1="14.16" x2="31.1" y2="12.55"></line><line class="cls-1" x1="35.93" y1="17.25" x2="35.93" y2="12.55"></line><line class="cls-1" x1="29.87" y1="12.55" x2="37.18" y2="12.55"></line></svg>