<svg xmlns="http://www.w3.org/2000/svg" xmlns:xlink="http://www.w3.org/1999/xlink" width="px" height="px" viewBox="0 0 50 50"><g id="surface1"><path style="fill:none;stroke-width:2;stroke-linecap:round;stroke-linejoin:round;stroke:rgb(93.72549%,70.196078%,25.882353%);stroke-opacity:1;stroke-miterlimit:4;" d="M 55.78125 86.210938 L 55.546875 86.210938 L 55.546875 61.882812 C 55.546875 49.382812 45.421875 39.25 32.921875 39.25 C 20.421875 39.25 10.289062 49.382812 10.289062 61.882812 L 10.289062 86.210938 L 10.0625 86.210938 C 7.632812 86.210938 5.671875 88.179688 5.671875 90.601562 C 5.671875 93.023438 7.640625 94.992188 10.0625 94.992188 L 55.773438 94.992188 C 58.203125 94.992188 60.15625 93.023438 60.15625 90.601562 C 60.15625 88.179688 58.1875 86.210938 55.773438 86.210938 Z M 55.78125 86.210938 " transform="matrix(0.5,0,0,0.5,0,0)"></path><path style="fill:none;stroke-width:2;stroke-linecap:round;stroke-linejoin:round;stroke:rgb(93.72549%,70.196078%,25.882353%);stroke-opacity:1;stroke-miterlimit:4;" d="M 20.59375 50.6875 C 21.242188 50.109375 22 49.5625 22.859375 49.070312 " transform="matrix(0.5,0,0,0.5,0,0)"></path><path style="fill:none;stroke-width:2;stroke-linecap:round;stroke-linejoin:round;stroke:rgb(93.72549%,70.196078%,25.882353%);stroke-opacity:1;stroke-miterlimit:4;" d="M 16.242188 67.132812 L 16.242188 60.507812 C 16.242188 60.507812 16.117188 57.117188 18.117188 53.710938 " transform="matrix(0.5,0,0,0.5,0,0)"></path><path style="fill:none;stroke-width:2;stroke-linecap:round;stroke-linejoin:round;stroke:rgb(93.72549%,70.196078%,25.882353%);stroke-opacity:1;stroke-miterlimit:4;" d="M 26.25 35.289062 L 23.90625 28.789062 L 42.109375 28.789062 L 37.679688 39.757812 " transform="matrix(0.5,0,0,0.5,0,0)"></path><path style="fill:none;stroke-width:2;stroke-linecap:round;stroke-linejoin:round;stroke:rgb(93.72549%,70.196078%,25.882353%);stroke-opacity:1;stroke-miterlimit:4;" d="M 82.273438 5 C 75.703125 5 70.382812 10.328125 70.382812 16.890625 C 76.953125 16.890625 82.273438 11.5625 82.273438 5 Z M 82.273438 5 " transform="matrix(0.5,0,0,0.5,0,0)"></path><path style="fill:none;stroke-width:2;stroke-linecap:round;stroke-linejoin:round;stroke:rgb(93.72549%,70.196078%,25.882353%);stroke-opacity:1;stroke-miterlimit:4;" d="M 58.492188 5 C 65.0625 5 70.382812 10.328125 70.382812 16.890625 C 63.8125 16.890625 58.492188 11.5625 58.492188 5 Z M 58.492188 5 " transform="matrix(0.5,0,0,0.5,0,0)"></path><path style="fill:none;stroke-width:2;stroke-linecap:round;stroke-linejoin:round;stroke:rgb(93.72549%,70.196078%,25.882353%);stroke-opacity:1;stroke-miterlimit:4;" d="M 86.921875 21.59375 C 77.78125 21.59375 70.382812 29 70.382812 38.132812 C 79.523438 38.132812 86.921875 30.71875 86.921875 21.59375 Z M 86.921875 21.59375 " transform="matrix(0.5,0,0,0.5,0,0)"></path><path style="fill:none;stroke-width:2;stroke-linecap:round;stroke-linejoin:round;stroke:rgb(93.72549%,70.196078%,25.882353%);stroke-opacity:1;stroke-miterlimit:4;" d="M 53.84375 21.59375 C 62.976562 21.59375 70.382812 29 70.382812 38.132812 C 61.242188 38.132812 53.84375 30.71875 53.84375 21.59375 Z M 53.84375 21.59375 " transform="matrix(0.5,0,0,0.5,0,0)"></path><path style="fill:none;stroke-width:2;stroke-linecap:round;stroke-linejoin:round;stroke:rgb(93.72549%,70.196078%,25.882353%);stroke-opacity:1;stroke-miterlimit:4;" d="M 70.382812 47.492188 L 70.382812 16.890625 " transform="matrix(0.5,0,0,0.5,0,0)"></path><path style="fill:none;stroke-width:2;stroke-linecap:round;stroke-linejoin:round;stroke:rgb(93.72549%,70.196078%,25.882353%);stroke-opacity:1;stroke-miterlimit:4;" d="M 58.546875 47.101562 L 94.320312 47.101562 L 94.320312 56.25 L 61.398438 56.25 " transform="matrix(0.5,0,0,0.5,0,0)"></path><path style="fill:none;stroke-width:2;stroke-linecap:round;stroke-linejoin:round;stroke:rgb(93.72549%,70.196078%,25.882353%);stroke-opacity:1;stroke-miterlimit:4;" d="M 65.640625 89.0625 L 84.890625 89.0625 L 91.25 56.25 " transform="matrix(0.5,0,0,0.5,0,0)"></path><path style="fill:none;stroke-width:2;stroke-linecap:round;stroke-linejoin:round;stroke:rgb(93.72549%,70.196078%,25.882353%);stroke-opacity:1;stroke-miterlimit:4;" d="M 24.9375 61.78125 L 40.90625 61.78125 " transform="matrix(0.5,0,0,0.5,0,0)"></path><path style="fill:none;stroke-width:2;stroke-linecap:round;stroke-linejoin:round;stroke:rgb(93.72549%,70.196078%,25.882353%);stroke-opacity:1;stroke-miterlimit:4;" d="M 24.9375 67.632812 L 40.90625 67.632812 " transform="matrix(0.5,0,0,0.5,0,0)"></path><path style="fill:none;stroke-width:2;stroke-linecap:round;stroke-linejoin:round;stroke:rgb(93.72549%,70.196078%,25.882353%);stroke-opacity:1;stroke-miterlimit:4;" d="M 30.679688 61.78125 C 33.851562 61.78125 36.421875 64.351562 36.421875 67.523438 C 36.421875 70.6875 33.851562 73.257812 30.679688 73.257812 L 27.8125 73.257812 L 37.398438 86.882812 " transform="matrix(0.5,0,0,0.5,0,0)"></path></g></svg>